<svg width="16" height="16" viewBox="0 0 16 16" fill="none" xmlns="http://www.w3.org/2000/svg">
<g clip-path="url(#clip0_207_1536)">
<path fill-rule="evenodd" clip-rule="evenodd" d="M2.75911 2.80535C3.27995 3.20879 3.47266 3.18006 4.45182 3.11636L13.6354 2.58677C13.8307 2.58677 13.668 2.40067 13.6029 2.36944L12.0729 1.31152C11.877 1.15167 11.6483 1.03314 11.4015 0.963633C11.1548 0.894127 10.8955 0.875201 10.6406 0.908083L1.7487 1.5326C1.42448 1.56257 1.35807 1.7187 1.48828 1.8436L2.75521 2.80785L2.75911 2.80535ZM3.3099 4.85875V14.1278C3.3099 14.6274 3.57031 14.8122 4.15365 14.781L14.2474 14.2214C14.832 14.1902 14.8984 13.8467 14.8984 13.4433V4.23548C14.8984 3.83205 14.7357 3.61097 14.3776 3.6447L3.83073 4.23548C3.4401 4.26671 3.3099 4.45406 3.3099 4.86V4.85875ZM13.2747 5.35836C13.3385 5.63814 13.2747 5.91792 12.9818 5.94915L12.5 6.04032V12.8837C12.0781 13.1011 11.6888 13.2247 11.3646 13.2247C10.8438 13.2247 10.7135 13.0698 10.3229 12.6002L7.13932 7.81269V12.4478L8.14583 12.6651C8.14583 12.6651 8.14583 13.2247 7.33464 13.2247L5.09505 13.3496C5.02995 13.2247 5.09505 12.915 5.32292 12.85L5.90625 12.6939V6.56866L5.09505 6.50621C5.07458 6.42371 5.07314 6.33791 5.09085 6.25483C5.10856 6.17174 5.14498 6.09337 5.19757 6.0252C5.25016 5.95702 5.31764 5.9007 5.3953 5.86016C5.47295 5.81963 5.5589 5.79586 5.64714 5.79052L8.04818 5.63564L11.3594 10.4918V6.1952L10.5156 6.10277C10.5007 6.02811 10.5029 5.95124 10.5219 5.87745C10.541 5.80366 10.5765 5.7347 10.626 5.67534C10.6755 5.61598 10.7378 5.56762 10.8087 5.5336C10.8795 5.49958 10.9573 5.4807 11.0365 5.47826L13.2773 5.35336L13.2747 5.35836ZM1.00521 0.689504L10.25 0.0362645C11.3919 -0.0574123 11.6836 0.00628793 12.3971 0.499652L15.3503 2.49809C15.8372 2.84032 16.0013 2.93275 16.0013 3.30621V14.2252C16.0013 14.9084 15.7409 15.3131 14.8294 15.3755L4.08724 16C3.40495 16.0313 3.08073 15.9376 2.72396 15.5004L0.552083 12.7901C0.161458 12.2904 0 11.9157 0 11.4836V1.77865C0 1.21909 0.260417 0.749457 1.00521 0.689504Z" fill="#666666"/>
</g>
<defs>
<clipPath id="clip0_207_1536">
<rect width="16" height="16" fill="white"/>
</clipPath>
</defs>
</svg>
